<mxfile host="Electron" agent="Mozilla/5.0 (Windows NT 10.0; Win64; x64) AppleWebKit/537.36 (KHTML, like Gecko) draw.io/21.1.2 Chrome/106.0.5249.199 Electron/21.4.3 Safari/537.36" modified="2024-09-27T08:35:56.805Z" version="21.1.2" etag="Lm6FtgZFVTI2H5CZkKNH" type="device">
  <diagram name="Seite-1" id="7bxzt9p1UtLDegLe35UT">
    <mxGraphModel dx="1593" dy="929" grid="1" gridSize="10" guides="1" tooltips="1" connect="1" arrows="1" fold="1" page="1" pageScale="1" pageWidth="827" pageHeight="1169" math="0" shadow="0">
      <root>
        <mxCell id="0" />
        <mxCell id="1" parent="0" />
        <mxCell id="7cyV-4dQnQROOi7uQJmQ-98" value="" style="rounded=0;whiteSpace=wrap;html=1;" parent="1" vertex="1">
          <mxGeometry x="810" y="1754" width="490" height="531" as="geometry" />
        </mxCell>
        <mxCell id="7cyV-4dQnQROOi7uQJmQ-60" value="" style="rounded=0;whiteSpace=wrap;html=1;" parent="1" vertex="1">
          <mxGeometry x="810" y="1190" width="490" height="370" as="geometry" />
        </mxCell>
        <mxCell id="7cyV-4dQnQROOi7uQJmQ-47" value="" style="rounded=0;whiteSpace=wrap;html=1;" parent="1" vertex="1">
          <mxGeometry x="220" y="77.5" width="490" height="2102.5" as="geometry" />
        </mxCell>
        <mxCell id="7cyV-4dQnQROOi7uQJmQ-2" value="&lt;div style=&quot;text-align: left; font-size: 32px;&quot;&gt;&lt;span style=&quot;background-color: initial;&quot;&gt;&lt;font style=&quot;font-size: 32px;&quot;&gt;Hi&amp;nbsp;&lt;/font&gt;&lt;/span&gt;&lt;/div&gt;&lt;div style=&quot;font-size: 32px;&quot;&gt;&lt;font style=&quot;font-size: 32px;&quot;&gt;I&#39;m Silvan&lt;/font&gt;&lt;/div&gt;" style="text;html=1;align=center;verticalAlign=middle;whiteSpace=wrap;rounded=0;" parent="1" vertex="1">
          <mxGeometry x="260" y="90" width="180" height="140" as="geometry" />
        </mxCell>
        <mxCell id="7cyV-4dQnQROOi7uQJmQ-5" value="" style="ellipse;whiteSpace=wrap;html=1;rotation=90;fillColor=#f5f5f5;fontColor=#333333;strokeColor=#666666;" parent="1" vertex="1">
          <mxGeometry x="500" y="110" width="140" height="110" as="geometry" />
        </mxCell>
        <mxCell id="7cyV-4dQnQROOi7uQJmQ-6" value="" style="shape=umlActor;verticalLabelPosition=bottom;verticalAlign=top;html=1;outlineConnect=0;" parent="1" vertex="1">
          <mxGeometry x="555" y="140" width="30" height="60" as="geometry" />
        </mxCell>
        <mxCell id="7cyV-4dQnQROOi7uQJmQ-7" value="" style="endArrow=none;dashed=1;html=1;rounded=0;exitX=0.002;exitY=0.333;exitDx=0;exitDy=0;exitPerimeter=0;" parent="1" edge="1">
          <mxGeometry width="50" height="50" relative="1" as="geometry">
            <mxPoint x="238.00000000000009" y="357.45" as="sourcePoint" />
            <mxPoint x="698" y="354" as="targetPoint" />
          </mxGeometry>
        </mxCell>
        <mxCell id="7cyV-4dQnQROOi7uQJmQ-8" value="Lorem ipsum dolor sit amet, consetetur sadipscing elitr, sed diam nonumy eirmod tempor invidunt ut labore et dolore magna aliquyam erat, sed diam voluptua. At vero eos et accusam et justo duo dolores et ea rebum. Stet clita kasd gubergren, no sea takimata sanctus est Lorem ipsum dolor sit amet.&amp;nbsp;" style="text;html=1;align=center;verticalAlign=middle;whiteSpace=wrap;rounded=0;" parent="1" vertex="1">
          <mxGeometry x="252" y="230" width="426" height="120" as="geometry" />
        </mxCell>
        <mxCell id="7cyV-4dQnQROOi7uQJmQ-10" value="" style="rounded=0;whiteSpace=wrap;html=1;fillColor=#dae8fc;strokeColor=#6c8ebf;" parent="1" vertex="1">
          <mxGeometry x="270" y="425" width="130" height="90" as="geometry" />
        </mxCell>
        <mxCell id="7cyV-4dQnQROOi7uQJmQ-11" value="&lt;font style=&quot;font-size: 18px;&quot;&gt;Projects&lt;/font&gt;" style="text;html=1;align=center;verticalAlign=middle;whiteSpace=wrap;rounded=0;" parent="1" vertex="1">
          <mxGeometry x="405" y="370" width="80" height="40" as="geometry" />
        </mxCell>
        <mxCell id="7cyV-4dQnQROOi7uQJmQ-18" value="Lorem ipsum dolor sit amet, consetetur sadipscing elitr, sed diam nonumy eirmod tempor invidunt ut labore et dolore magna aliquyam erat, sed diam&amp;nbsp;&amp;nbsp;" style="text;html=1;align=left;verticalAlign=middle;whiteSpace=wrap;rounded=0;" parent="1" vertex="1">
          <mxGeometry x="425" y="460" width="215" height="55" as="geometry" />
        </mxCell>
        <mxCell id="7cyV-4dQnQROOi7uQJmQ-19" value="" style="rounded=0;whiteSpace=wrap;html=1;fillColor=#dae8fc;strokeColor=#6c8ebf;" parent="1" vertex="1">
          <mxGeometry x="500" y="550" width="130" height="90" as="geometry" />
        </mxCell>
        <mxCell id="7cyV-4dQnQROOi7uQJmQ-21" value="&lt;b&gt;Lorem ipsum dolor sit amet&lt;/b&gt;" style="text;html=1;align=left;verticalAlign=middle;whiteSpace=wrap;rounded=0;strokeWidth=3;" parent="1" vertex="1">
          <mxGeometry x="425" y="425" width="180" height="25" as="geometry" />
        </mxCell>
        <mxCell id="7cyV-4dQnQROOi7uQJmQ-22" value="Lorem ipsum dolor sit amet, consetetur sadipscing elitr, sed diam nonumy eirmod tempor invidunt ut labore et dolore magna aliquyam erat, sed diam&amp;nbsp;&amp;nbsp;" style="text;html=1;align=left;verticalAlign=middle;whiteSpace=wrap;rounded=0;" parent="1" vertex="1">
          <mxGeometry x="270" y="575" width="215" height="55" as="geometry" />
        </mxCell>
        <mxCell id="7cyV-4dQnQROOi7uQJmQ-23" value="&lt;b&gt;Lorem ipsum dolor sit amet&lt;/b&gt;" style="text;html=1;align=left;verticalAlign=middle;whiteSpace=wrap;rounded=0;strokeWidth=3;" parent="1" vertex="1">
          <mxGeometry x="270" y="540" width="180" height="35" as="geometry" />
        </mxCell>
        <mxCell id="7cyV-4dQnQROOi7uQJmQ-24" value="" style="rounded=0;whiteSpace=wrap;html=1;fillColor=#dae8fc;strokeColor=#6c8ebf;" parent="1" vertex="1">
          <mxGeometry x="270" y="670" width="130" height="90" as="geometry" />
        </mxCell>
        <mxCell id="7cyV-4dQnQROOi7uQJmQ-25" value="Lorem ipsum dolor sit amet, consetetur sadipscing elitr, sed diam nonumy eirmod tempor invidunt ut labore et dolore magna aliquyam erat, sed diam&amp;nbsp;&amp;nbsp;" style="text;html=1;align=left;verticalAlign=middle;whiteSpace=wrap;rounded=0;" parent="1" vertex="1">
          <mxGeometry x="430" y="705" width="215" height="55" as="geometry" />
        </mxCell>
        <mxCell id="7cyV-4dQnQROOi7uQJmQ-26" value="&lt;b&gt;Lorem ipsum dolor sit amet&lt;/b&gt;" style="text;html=1;align=left;verticalAlign=middle;whiteSpace=wrap;rounded=0;strokeWidth=3;" parent="1" vertex="1">
          <mxGeometry x="430" y="670" width="180" height="35" as="geometry" />
        </mxCell>
        <mxCell id="7cyV-4dQnQROOi7uQJmQ-27" value="" style="rounded=0;whiteSpace=wrap;html=1;fillColor=#dae8fc;strokeColor=#6c8ebf;" parent="1" vertex="1">
          <mxGeometry x="500" y="800" width="130" height="90" as="geometry" />
        </mxCell>
        <mxCell id="7cyV-4dQnQROOi7uQJmQ-28" value="Lorem ipsum dolor sit amet, consetetur sadipscing elitr, sed diam nonumy eirmod tempor invidunt ut labore et dolore magna aliquyam erat, sed diam&amp;nbsp;&amp;nbsp;" style="text;html=1;align=left;verticalAlign=middle;whiteSpace=wrap;rounded=0;" parent="1" vertex="1">
          <mxGeometry x="270" y="825" width="215" height="55" as="geometry" />
        </mxCell>
        <mxCell id="7cyV-4dQnQROOi7uQJmQ-29" value="&lt;b&gt;Lorem ipsum dolor sit amet&lt;/b&gt;" style="text;html=1;align=left;verticalAlign=middle;whiteSpace=wrap;rounded=0;strokeWidth=3;" parent="1" vertex="1">
          <mxGeometry x="270" y="790" width="180" height="35" as="geometry" />
        </mxCell>
        <mxCell id="7cyV-4dQnQROOi7uQJmQ-30" value="&lt;font style=&quot;font-size: 18px;&quot;&gt;Career&lt;/font&gt;" style="text;html=1;align=center;verticalAlign=middle;whiteSpace=wrap;rounded=0;" parent="1" vertex="1">
          <mxGeometry x="413" y="920" width="80" height="40" as="geometry" />
        </mxCell>
        <mxCell id="7cyV-4dQnQROOi7uQJmQ-32" value="Today" style="text;html=1;align=center;verticalAlign=middle;whiteSpace=wrap;rounded=0;" parent="1" vertex="1">
          <mxGeometry x="282" y="970" width="60" height="30" as="geometry" />
        </mxCell>
        <mxCell id="7cyV-4dQnQROOi7uQJmQ-36" value="" style="endArrow=none;dashed=1;html=1;rounded=0;" parent="1" edge="1">
          <mxGeometry width="50" height="50" relative="1" as="geometry">
            <mxPoint x="311.7" y="1060" as="sourcePoint" />
            <mxPoint x="311.7" y="1000" as="targetPoint" />
          </mxGeometry>
        </mxCell>
        <mxCell id="7cyV-4dQnQROOi7uQJmQ-37" value="2023" style="text;html=1;align=center;verticalAlign=middle;whiteSpace=wrap;rounded=0;" parent="1" vertex="1">
          <mxGeometry x="282" y="1060" width="60" height="30" as="geometry" />
        </mxCell>
        <mxCell id="7cyV-4dQnQROOi7uQJmQ-38" value="" style="endArrow=none;dashed=1;html=1;rounded=0;" parent="1" edge="1">
          <mxGeometry width="50" height="50" relative="1" as="geometry">
            <mxPoint x="311.7" y="1150" as="sourcePoint" />
            <mxPoint x="311.7" y="1090" as="targetPoint" />
          </mxGeometry>
        </mxCell>
        <mxCell id="7cyV-4dQnQROOi7uQJmQ-39" value="2023" style="text;html=1;align=center;verticalAlign=middle;whiteSpace=wrap;rounded=0;" parent="1" vertex="1">
          <mxGeometry x="282" y="1150" width="60" height="30" as="geometry" />
        </mxCell>
        <mxCell id="7cyV-4dQnQROOi7uQJmQ-40" value="" style="endArrow=none;dashed=1;html=1;rounded=0;" parent="1" edge="1">
          <mxGeometry width="50" height="50" relative="1" as="geometry">
            <mxPoint x="311.7" y="1240" as="sourcePoint" />
            <mxPoint x="311.7" y="1180" as="targetPoint" />
          </mxGeometry>
        </mxCell>
        <mxCell id="7cyV-4dQnQROOi7uQJmQ-41" value="2023" style="text;html=1;align=center;verticalAlign=middle;whiteSpace=wrap;rounded=0;" parent="1" vertex="1">
          <mxGeometry x="282" y="1240" width="60" height="30" as="geometry" />
        </mxCell>
        <mxCell id="7cyV-4dQnQROOi7uQJmQ-42" value="Lorem ipsum dolor sit amet, consetetur sadipscing elitr, sed diam nonumy eirmod tempor invidunt ut labore et dolore magna aliquyam erat, sed diam&amp;nbsp;&amp;nbsp;" style="text;html=1;align=left;verticalAlign=middle;whiteSpace=wrap;rounded=0;" parent="1" vertex="1">
          <mxGeometry x="362" y="1000" width="215" height="55" as="geometry" />
        </mxCell>
        <mxCell id="7cyV-4dQnQROOi7uQJmQ-43" value="Lorem ipsum dolor sit amet, consetetur sadipscing elitr, sed diam nonumy eirmod tempor invidunt ut labore et dolore magna aliquyam erat, sed diam&amp;nbsp;&amp;nbsp;" style="text;html=1;align=left;verticalAlign=middle;whiteSpace=wrap;rounded=0;" parent="1" vertex="1">
          <mxGeometry x="357.5" y="1090" width="215" height="55" as="geometry" />
        </mxCell>
        <mxCell id="7cyV-4dQnQROOi7uQJmQ-44" value="Lorem ipsum dolor sit amet, consetetur sadipscing elitr, sed diam nonumy eirmod tempor invidunt ut labore et dolore magna aliquyam erat, sed diam&amp;nbsp;&amp;nbsp;" style="text;html=1;align=left;verticalAlign=middle;whiteSpace=wrap;rounded=0;" parent="1" vertex="1">
          <mxGeometry x="357.5" y="1180" width="215" height="55" as="geometry" />
        </mxCell>
        <mxCell id="7cyV-4dQnQROOi7uQJmQ-45" value="&lt;font style=&quot;font-size: 18px;&quot;&gt;Photography&lt;/font&gt;" style="text;html=1;align=center;verticalAlign=middle;whiteSpace=wrap;rounded=0;" parent="1" vertex="1">
          <mxGeometry x="420" y="1290" width="80" height="40" as="geometry" />
        </mxCell>
        <mxCell id="7cyV-4dQnQROOi7uQJmQ-46" value="" style="rounded=1;whiteSpace=wrap;html=1;fillColor=#dae8fc;strokeColor=#6c8ebf;" parent="1" vertex="1">
          <mxGeometry x="304.41" y="1360" width="145.59" height="100" as="geometry" />
        </mxCell>
        <mxCell id="7cyV-4dQnQROOi7uQJmQ-51" value="&lt;span style=&quot;&quot;&gt;Lorem ipsum dolor sit amet, consetetur sadipscing elitr, sed diam nonumy eirmod tempor invidunt ut labore et dolore magna aliquyam erat, sed diam&amp;nbsp;&amp;nbsp;&lt;/span&gt;" style="text;html=1;align=left;verticalAlign=middle;whiteSpace=wrap;rounded=0;" parent="1" vertex="1">
          <mxGeometry x="467.5" y="1360" width="162.5" height="100" as="geometry" />
        </mxCell>
        <mxCell id="7cyV-4dQnQROOi7uQJmQ-56" value="" style="rounded=0;whiteSpace=wrap;html=1;fillColor=#dae8fc;strokeColor=#6c8ebf;" parent="1" vertex="1">
          <mxGeometry x="857.5" y="1240" width="395" height="275" as="geometry" />
        </mxCell>
        <mxCell id="7cyV-4dQnQROOi7uQJmQ-57" value="" style="endArrow=classic;html=1;rounded=0;" parent="1" edge="1">
          <mxGeometry width="50" height="50" relative="1" as="geometry">
            <mxPoint x="1271" y="1364" as="sourcePoint" />
            <mxPoint x="1281" y="1364" as="targetPoint" />
          </mxGeometry>
        </mxCell>
        <mxCell id="7cyV-4dQnQROOi7uQJmQ-58" value="" style="endArrow=classic;html=1;rounded=0;" parent="1" edge="1">
          <mxGeometry width="50" height="50" relative="1" as="geometry">
            <mxPoint x="840" y="1364" as="sourcePoint" />
            <mxPoint x="830" y="1364" as="targetPoint" />
          </mxGeometry>
        </mxCell>
        <mxCell id="7cyV-4dQnQROOi7uQJmQ-61" value="" style="rounded=1;whiteSpace=wrap;html=1;fillColor=#dae8fc;strokeColor=#6c8ebf;" parent="1" vertex="1">
          <mxGeometry x="302.20000000000005" y="1490" width="145.59" height="100" as="geometry" />
        </mxCell>
        <mxCell id="7cyV-4dQnQROOi7uQJmQ-62" value="&lt;span style=&quot;&quot;&gt;Lorem ipsum dolor sit amet, consetetur sadipscing elitr, sed diam nonumy eirmod tempor invidunt ut labore et dolore magna aliquyam erat, sed diam&amp;nbsp;&amp;nbsp;&lt;/span&gt;" style="text;html=1;align=left;verticalAlign=middle;whiteSpace=wrap;rounded=0;" parent="1" vertex="1">
          <mxGeometry x="465.29" y="1490" width="162.5" height="100" as="geometry" />
        </mxCell>
        <mxCell id="7cyV-4dQnQROOi7uQJmQ-63" value="" style="rounded=1;whiteSpace=wrap;html=1;fillColor=#dae8fc;strokeColor=#6c8ebf;" parent="1" vertex="1">
          <mxGeometry x="304.41" y="1610" width="145.59" height="100" as="geometry" />
        </mxCell>
        <mxCell id="7cyV-4dQnQROOi7uQJmQ-64" value="&lt;span style=&quot;&quot;&gt;Lorem ipsum dolor sit amet, consetetur sadipscing elitr, sed diam nonumy eirmod tempor invidunt ut labore et dolore magna aliquyam erat, sed diam&amp;nbsp;&amp;nbsp;&lt;/span&gt;" style="text;html=1;align=left;verticalAlign=middle;whiteSpace=wrap;rounded=0;" parent="1" vertex="1">
          <mxGeometry x="467.5" y="1610" width="162.5" height="100" as="geometry" />
        </mxCell>
        <mxCell id="7cyV-4dQnQROOi7uQJmQ-66" value="&lt;font style=&quot;font-size: 14px;&quot;&gt;X&lt;/font&gt;" style="text;html=1;align=center;verticalAlign=middle;whiteSpace=wrap;rounded=0;" parent="1" vertex="1">
          <mxGeometry x="1230" y="1200" width="60" height="30" as="geometry" />
        </mxCell>
        <mxCell id="7cyV-4dQnQROOi7uQJmQ-67" value="" style="shape=image;verticalLabelPosition=bottom;labelBackgroundColor=default;verticalAlign=top;aspect=fixed;imageAspect=0;image=data:image/png,iVBORw0KGgoAAAANSUhEUgAAAD0AAAAwCAYAAACi/HI3AAAAAXNSR0IArs4c6QAAAARnQU1BAACxjwv8YQUAAAAJcEhZcwAADsMAAA7DAcdvqGQAAAG+SURBVGhD7dixSwJhHMbxpwadbhDc3AoaWiqX/oImKzIqoaVsCGqqlpaGIJ1yqIbAFiOCCMJBCIqmmmoqB2nKyaY7ChRCA7nulbe6QqG81/OV3/sBvfM9ly93eve+XaYFxHTzLSkqmgoVTYWKpkJFU6GiqSAZLcGEI4vDSAzn/JOdp28YQ0U/RnbnMcDHRJBillV5LeGd73+qGFfY2zQwOO5Hb2RSaLQUl7fXp0Gzv6r3SK7FYYQ1PG7l+bfEke83bdwgHl3F81wG+1P98PJhkeSK/hEc4IPiyRPtUjAjR7SLwUz7o10OrmG3rLbRr83YaNBcOn4yy3zot/JLoyPNa+99+i2L9KWGULinJf/SjaglYCpUNBUqmorWRlf5VjKtiy7dITExjYNchQ9IhN2nm/NgpmZS1nsdxVtzmz1ppQt8QC6OzrSRM/ieDTvDs8vIL1jP0mGXnqX/Sezl3QHBjLjoWvAKCotyBzNior+Cz7AzJncw4zi6zObDHRTMOIr2BHWcRNehd1Aw42Bqac2Fj4BANYnEhc7H7ELYOBW7SC+Ko/l0vUX6bx5oPjeXBv5OLSJQoaKpUNFUqGgagA9pFHEU30Z5yAAAAABJRU5ErkJggg==;" parent="1" vertex="1">
          <mxGeometry x="821.92" y="1202" width="35.58" height="28" as="geometry" />
        </mxCell>
        <mxCell id="7cyV-4dQnQROOi7uQJmQ-68" value="" style="shape=flexArrow;endArrow=classic;html=1;rounded=0;" parent="1" edge="1">
          <mxGeometry width="50" height="50" relative="1" as="geometry">
            <mxPoint x="680" y="1390" as="sourcePoint" />
            <mxPoint x="780" y="1380" as="targetPoint" />
          </mxGeometry>
        </mxCell>
        <mxCell id="7cyV-4dQnQROOi7uQJmQ-70" value="&lt;font style=&quot;font-size: 18px;&quot;&gt;Blogs&lt;/font&gt;" style="text;html=1;align=center;verticalAlign=middle;whiteSpace=wrap;rounded=0;" parent="1" vertex="1">
          <mxGeometry x="420" y="1750" width="80" height="40" as="geometry" />
        </mxCell>
        <mxCell id="7cyV-4dQnQROOi7uQJmQ-92" value="&lt;h1 style=&quot;margin-top: 0px;&quot;&gt;This is a title&lt;/h1&gt;" style="text;html=1;whiteSpace=wrap;overflow=hidden;rounded=0;" parent="1" vertex="1">
          <mxGeometry x="990" y="1780" width="160" height="50" as="geometry" />
        </mxCell>
        <mxCell id="7cyV-4dQnQROOi7uQJmQ-93" value="" style="rounded=0;whiteSpace=wrap;html=1;fillColor=#dae8fc;strokeColor=#6c8ebf;" parent="1" vertex="1">
          <mxGeometry x="870" y="1830" width="360" height="151" as="geometry" />
        </mxCell>
        <mxCell id="7cyV-4dQnQROOi7uQJmQ-95" value="&lt;span style=&quot;&quot;&gt;Lorem ipsum dolor sit amet, consetetur sadipscing elitr, sed diam nonumy eirmod tempor invidunt ut labore et dolore magna aliquyam erat, sed diam&amp;nbsp;&amp;nbsp;&lt;/span&gt;" style="text;html=1;align=center;verticalAlign=middle;whiteSpace=wrap;rounded=0;" parent="1" vertex="1">
          <mxGeometry x="870" y="2019" width="360" height="80" as="geometry" />
        </mxCell>
        <mxCell id="7cyV-4dQnQROOi7uQJmQ-96" value="&lt;span style=&quot;&quot;&gt;Lorem ipsum dolor sit amet, consetetur sadipscing elitr, sed diam nonumy eirmod tempor invidunt ut labore et dolore magna aliquyam erat, sed diam&amp;nbsp;&amp;nbsp;&lt;/span&gt;" style="text;html=1;align=center;verticalAlign=middle;whiteSpace=wrap;rounded=0;" parent="1" vertex="1">
          <mxGeometry x="880" y="2084" width="360" height="80" as="geometry" />
        </mxCell>
        <mxCell id="7cyV-4dQnQROOi7uQJmQ-97" value="&lt;span style=&quot;&quot;&gt;Lorem ipsum dolor sit amet, consetetur sadipscing elitr, sed diam nonumy eirmod tempor invidunt ut labore et dolore magna aliquyam erat, sed diam&amp;nbsp;&amp;nbsp;&lt;/span&gt;" style="text;html=1;align=center;verticalAlign=middle;whiteSpace=wrap;rounded=0;" parent="1" vertex="1">
          <mxGeometry x="880" y="2149" width="360" height="80" as="geometry" />
        </mxCell>
        <mxCell id="7cyV-4dQnQROOi7uQJmQ-99" value="" style="shape=flexArrow;endArrow=classic;html=1;rounded=0;" parent="1" edge="1">
          <mxGeometry width="50" height="50" relative="1" as="geometry">
            <mxPoint x="680" y="1850" as="sourcePoint" />
            <mxPoint x="780" y="1840" as="targetPoint" />
          </mxGeometry>
        </mxCell>
        <mxCell id="SvOwnvvxMA6TdH0GUzkU-2" value="November 3rd, 2024 by &lt;span style=&quot;font-style: normal;&quot;&gt;SILVAN WENK&lt;/span&gt;" style="text;html=1;align=left;verticalAlign=middle;whiteSpace=wrap;rounded=0;fontStyle=2;fontSize=10;" vertex="1" parent="1">
          <mxGeometry x="960" y="1990" width="180" height="30" as="geometry" />
        </mxCell>
        <mxCell id="SvOwnvvxMA6TdH0GUzkU-3" value="&lt;u style=&quot;font-size: 10px;&quot;&gt;Read more&lt;/u&gt;" style="text;html=1;align=left;verticalAlign=middle;whiteSpace=wrap;rounded=0;fontSize=10;" vertex="1" parent="1">
          <mxGeometry x="583.7" y="2054" width="72.5" height="30" as="geometry" />
        </mxCell>
        <mxCell id="SvOwnvvxMA6TdH0GUzkU-4" value="&lt;span style=&quot;&quot;&gt;&lt;font style=&quot;font-size: 14px;&quot;&gt;This is a title&lt;/font&gt;&lt;/span&gt;" style="text;html=1;align=left;verticalAlign=middle;whiteSpace=wrap;rounded=0;" vertex="1" parent="1">
          <mxGeometry x="303.40999999999997" y="1980" width="197.8" height="31" as="geometry" />
        </mxCell>
        <mxCell id="SvOwnvvxMA6TdH0GUzkU-5" value="November 3rd, 2024 by &lt;span style=&quot;font-style: normal;&quot;&gt;SILVAN WENK&lt;/span&gt;" style="text;html=1;align=left;verticalAlign=middle;whiteSpace=wrap;rounded=0;fontStyle=2;fontSize=10;" vertex="1" parent="1">
          <mxGeometry x="306" y="1950" width="194" height="30" as="geometry" />
        </mxCell>
        <mxCell id="SvOwnvvxMA6TdH0GUzkU-7" value="&lt;span style=&quot;&quot;&gt;Lorem ipsum dolor sit amet, consetetur sadipscing elitr, sed diam nonumy eirmod tempor invidunt ut labore et dolore magna aliquyam erat, sed diam&amp;nbsp;&amp;nbsp;&lt;/span&gt;" style="text;html=1;align=left;verticalAlign=middle;whiteSpace=wrap;rounded=0;" vertex="1" parent="1">
          <mxGeometry x="302.2" y="2002" width="354" height="69" as="geometry" />
        </mxCell>
        <mxCell id="SvOwnvvxMA6TdH0GUzkU-8" value="&lt;u style=&quot;font-size: 10px;&quot;&gt;Read more&lt;/u&gt;" style="text;html=1;align=left;verticalAlign=middle;whiteSpace=wrap;rounded=0;fontSize=10;" vertex="1" parent="1">
          <mxGeometry x="583.7" y="1890.5" width="72.5" height="30" as="geometry" />
        </mxCell>
        <mxCell id="SvOwnvvxMA6TdH0GUzkU-9" value="&lt;span style=&quot;&quot;&gt;&lt;font style=&quot;font-size: 14px;&quot;&gt;This is a title&lt;/font&gt;&lt;/span&gt;" style="text;html=1;align=left;verticalAlign=middle;whiteSpace=wrap;rounded=0;" vertex="1" parent="1">
          <mxGeometry x="304.61999999999995" y="1820" width="197.8" height="31" as="geometry" />
        </mxCell>
        <mxCell id="SvOwnvvxMA6TdH0GUzkU-10" value="November 3rd, 2024 by &lt;span style=&quot;font-style: normal;&quot;&gt;SILVAN WENK&lt;/span&gt;" style="text;html=1;align=left;verticalAlign=middle;whiteSpace=wrap;rounded=0;fontStyle=2;fontSize=10;" vertex="1" parent="1">
          <mxGeometry x="307.21" y="1790" width="194" height="30" as="geometry" />
        </mxCell>
        <mxCell id="SvOwnvvxMA6TdH0GUzkU-11" value="&lt;span style=&quot;&quot;&gt;Lorem ipsum dolor sit amet, consetetur sadipscing elitr, sed diam nonumy eirmod tempor invidunt ut labore et dolore magna aliquyam erat, sed diam&amp;nbsp;&amp;nbsp;&lt;/span&gt;" style="text;html=1;align=left;verticalAlign=middle;whiteSpace=wrap;rounded=0;" vertex="1" parent="1">
          <mxGeometry x="303.40999999999997" y="1842" width="354" height="69" as="geometry" />
        </mxCell>
      </root>
    </mxGraphModel>
  </diagram>
</mxfile>
